<svg width="60" height="60" viewBox="0 0 60 60" fill="none" xmlns="http://www.w3.org/2000/svg">
<path d="M52.4548 30.721C52.2546 30.3769 52.0328 30.0457 51.7908 29.7294L40.106 12.5426C39.9949 12.3768 39.8532 12.2337 39.6885 12.1209C38.9922 11.6419 38.2084 11.3048 37.3818 11.1288C36.5553 10.9528 35.7021 10.9414 34.8711 11.0951C34.0401 11.2489 33.2475 11.5649 32.5386 12.025C31.8298 12.4851 31.2185 13.0803 30.7397 13.7767C30.4988 14.1273 30.4067 14.5591 30.4833 14.9775L31.3979 19.9205L25.0709 21.0912L24.1563 16.1482C24.118 15.9404 24.0391 15.7421 23.9242 15.5648C23.8093 15.3875 23.6606 15.2345 23.4865 15.1147C22.7902 14.6357 22.0064 14.2986 21.1799 14.1226C20.3533 13.9466 19.5001 13.9352 18.6691 14.0889C17.8381 14.2427 17.0455 14.5586 16.3367 15.0187C15.6278 15.4788 15.0165 16.0741 14.5377 16.7705C14.4243 16.9347 14.3432 17.1191 14.2987 17.3137L9.53713 37.5435C9.42433 37.9254 9.33574 38.3141 9.27187 38.7071C9.0473 40.0961 9.12915 41.5174 9.51167 42.8715C9.8942 44.2255 10.5682 45.4796 11.4863 46.5457C12.4045 47.6119 13.5447 48.4645 14.827 49.0436C16.1093 49.6228 17.5027 49.9146 18.9097 49.8986C20.3166 49.8826 21.7031 49.5591 22.9719 48.9509C24.2407 48.3427 25.3612 47.4645 26.2548 46.3776C27.1485 45.2908 27.7937 44.0218 28.1453 42.6594C28.4969 41.297 28.5464 39.8742 28.2903 38.4906L25.6562 24.2547L31.9833 23.084L34.6174 37.3199C34.8727 38.7038 35.4275 40.0151 36.243 41.1619C37.0585 42.3087 38.1149 43.2634 39.3382 43.9589C40.5615 44.6545 41.9221 45.0741 43.3247 45.1885C44.7272 45.3028 46.1378 45.109 47.4576 44.6208C48.7774 44.1325 49.9745 43.3616 50.965 42.362C51.9554 41.3624 52.7153 40.1582 53.1914 38.834C53.6675 37.5098 53.8482 36.0975 53.721 34.696C53.5938 33.2946 53.1616 31.9379 52.4548 30.721ZM17.3525 18.3784C17.7977 17.8368 18.4076 17.4554 19.0895 17.2924C19.7714 17.1293 20.4878 17.1934 21.1299 17.475L23.8192 32.0094C22.3791 31.129 20.7329 30.6425 19.0455 30.5987C17.3581 30.5549 15.6888 30.9553 14.205 31.7598L17.3525 18.3784ZM19.9704 46.5737C18.719 46.8053 17.4271 46.6606 16.258 46.1579C15.0888 45.6551 14.095 44.817 13.4022 43.7495C12.7094 42.682 12.3488 41.433 12.3658 40.1605C12.3828 38.888 12.7768 37.6492 13.498 36.6006C14.2191 35.552 15.235 34.7408 16.4171 34.2696C17.5993 33.7984 18.8946 33.6883 20.1394 33.9532C21.3841 34.2182 22.5223 34.8463 23.41 35.7581C24.2978 36.67 24.8952 37.8246 25.1268 39.076C25.4372 40.754 25.0684 42.4867 24.1014 43.8928C23.1344 45.2989 21.6484 46.2633 19.9704 46.5737ZM33.7837 15.1316C34.2825 14.6389 34.9286 14.3227 35.6237 14.231C36.3188 14.1393 37.0248 14.2771 37.6343 14.6236L45.3611 25.9909C43.6875 25.7709 41.9854 25.9946 40.4255 26.6397C38.8655 27.2847 37.5025 28.3283 36.473 29.6661L33.7837 15.1316ZM45.2787 41.891C44.0273 42.1225 42.7354 41.9778 41.5662 41.4751C40.3971 40.9723 39.4033 40.1342 38.7105 39.0667C38.0177 37.9992 37.657 36.7502 37.6741 35.4777C37.6911 34.2052 38.0851 32.9664 38.8062 31.9178C39.5274 30.8692 40.5433 30.058 41.7254 29.5868C42.9076 29.1156 44.2029 29.0055 45.4476 29.2704C46.6924 29.5354 47.8306 30.1635 48.7183 31.0754C49.6061 31.9872 50.2035 33.1418 50.435 34.3932C50.7455 36.0712 50.3767 37.8039 49.4097 39.21C48.4427 40.6161 46.9567 41.5805 45.2787 41.891Z" fill="#2A233E"/>
</svg>
