<svg width="51" height="51" viewBox="0 0 51 51" fill="none" xmlns="http://www.w3.org/2000/svg">
<path d="M39.9095 10.7153C36.0603 6.90364 30.8606 4.7679 25.4436 4.77345L25.2309 4.77345C19.7847 4.82948 14.5807 7.03235 10.7494 10.9034C6.91817 14.7745 4.76924 20.0011 4.76953 25.4475C4.76953 33.9954 10.0533 41.1638 18.5575 44.1675C19.5167 44.5056 20.543 44.6089 21.5503 44.4686C22.5576 44.3283 23.5166 43.9485 24.3469 43.361C25.1771 42.7736 25.8544 41.9956 26.3219 41.0924C26.7895 40.1892 27.0336 39.1871 27.0339 38.17C27.0339 37.3265 27.369 36.5175 27.9655 35.921C28.562 35.3245 29.371 34.9894 30.2145 34.9894L39.4006 34.9894C40.8435 34.9964 42.2455 34.5096 43.3737 33.61C44.5019 32.7103 45.2884 31.4518 45.6028 30.0435C45.9583 28.4784 46.131 26.8774 46.1177 25.2726C46.0974 22.5561 45.5382 19.8706 44.4726 17.3717C43.4069 14.8728 41.8559 12.6103 39.9095 10.7153ZM42.4937 29.3438C42.3358 30.0454 41.9431 30.6721 41.3807 31.1203C40.8183 31.5685 40.1197 31.8114 39.4006 31.8088L30.2145 31.8088C28.5274 31.8088 26.9094 32.479 25.7164 33.6719C24.5235 34.8649 23.8533 36.4829 23.8533 38.17C23.8525 38.678 23.7301 39.1785 23.4963 39.6295C23.2624 40.0805 22.9239 40.469 22.5091 40.7623C22.0943 41.0556 21.6153 41.2453 21.1121 41.3155C20.609 41.3857 20.0963 41.3344 19.6171 41.1658C12.4209 38.6272 7.95016 32.6039 7.95016 25.4475C7.94991 20.8391 9.76811 16.4168 13.0097 13.1413C16.2514 9.8658 20.6546 8.00173 25.2627 7.95407L25.4416 7.95407C30.0499 7.97197 34.4666 9.80038 37.7391 13.045C41.0116 16.2896 42.8777 20.6904 42.935 25.2984C42.9469 26.6591 42.8015 28.0165 42.5017 29.3438L42.4937 29.3438ZM27.8291 15.1105C27.8291 15.5823 27.6892 16.0435 27.427 16.4358C27.1649 16.8281 26.7924 17.1338 26.3565 17.3144C25.9206 17.4949 25.4409 17.5422 24.9782 17.4501C24.5155 17.3581 24.0904 17.1309 23.7568 16.7973C23.4232 16.4636 23.196 16.0386 23.104 15.5759C23.0119 15.1131 23.0592 14.6335 23.2397 14.1976C23.4203 13.7617 23.726 13.3892 24.1183 13.127C24.5106 12.8649 24.9718 12.725 25.4436 12.725C26.0763 12.725 26.683 12.9763 27.1304 13.4237C27.5777 13.8711 27.8291 14.4778 27.8291 15.1105ZM19.0823 19.8814C19.0823 20.3532 18.9424 20.8144 18.6803 21.2067C18.4182 21.599 18.0456 21.9048 17.6098 22.0853C17.1739 22.2659 16.6942 22.3131 16.2315 22.221C15.7688 22.129 15.3437 21.9018 15.0101 21.5682C14.6765 21.2346 14.4493 20.8095 14.3572 20.3468C14.2652 19.8841 14.3124 19.4044 14.493 18.9685C14.6735 18.5326 14.9793 18.1601 15.3716 17.898C15.7639 17.6359 16.2251 17.4959 16.6969 17.4959C17.3295 17.4959 17.9363 17.7473 18.3837 18.1946C18.831 18.642 19.0823 19.2488 19.0823 19.8814ZM19.0823 31.0136C19.0823 31.4854 18.9424 31.9466 18.6803 32.3389C18.4182 32.7312 18.0456 33.0369 17.6098 33.2175C17.1739 33.398 16.6942 33.4453 16.2315 33.3532C15.7688 33.2612 15.3437 33.034 15.0101 32.7004C14.6765 32.3668 14.4493 31.9417 14.3572 31.479C14.2652 31.0163 14.3124 30.5366 14.493 30.1007C14.6735 29.6648 14.9793 29.2923 15.3716 29.0302C15.7639 28.768 16.2251 28.6281 16.6969 28.6281C17.3295 28.6281 17.9363 28.8795 18.3837 29.3268C18.831 29.7742 19.0823 30.3809 19.0823 31.0136ZM36.5758 19.8814C36.5758 20.3532 36.4359 20.8144 36.1738 21.2067C35.9116 21.599 35.5391 21.9048 35.1032 22.0853C34.6673 22.2659 34.1877 22.3131 33.7249 22.221C33.2622 22.129 32.8371 21.9018 32.5035 21.5682C32.1699 21.2346 31.9427 20.8095 31.8507 20.3468C31.7586 19.8841 31.8059 19.4044 31.9864 18.9685C32.167 18.5326 32.4727 18.1601 32.865 17.898C33.2573 17.6359 33.7185 17.4959 34.1903 17.4959C34.823 17.4959 35.4297 17.7473 35.8771 18.1946C36.3245 18.642 36.5758 19.2488 36.5758 19.8814Z" fill="#2A233E"/>
</svg>
