<svg width="52" height="52" viewBox="0 0 52 52" fill="none" xmlns="http://www.w3.org/2000/svg">
<path d="M47.8712 20.0406C47.869 19.6228 47.7839 19.2096 47.6206 18.825C47.4574 18.4404 47.2193 18.092 46.9203 17.8002L33.1555 4.25954C32.8577 3.96659 32.5052 3.73516 32.1179 3.57848C31.7307 3.4218 31.3164 3.34294 30.8987 3.3464C30.481 3.34986 30.068 3.43557 29.6835 3.59864C29.2989 3.76171 28.9502 3.99894 28.6573 4.29679L23.053 9.99469L11.5599 14.4174C11.0376 14.6172 10.5769 14.9506 10.2239 15.3844C9.87099 15.8182 9.63817 16.3371 9.54881 16.8891L5.15881 44.6462C5.12258 44.8744 5.1365 45.1077 5.1996 45.33C5.2627 45.5522 5.37347 45.7581 5.5242 45.9331C5.67493 46.1082 5.862 46.2484 6.07239 46.3438C6.28278 46.4393 6.51145 46.4877 6.74247 46.4858C6.83036 46.4847 6.91804 46.4767 7.00467 46.4618L34.6833 41.6128C35.2332 41.5164 35.7479 41.2769 36.1759 40.9185C36.6039 40.5601 36.93 40.0954 37.1214 39.571L41.3533 28.0063L46.9575 22.2985C47.2519 22.0015 47.4842 21.6489 47.641 21.2613C47.7979 20.8737 47.8761 20.4588 47.8712 20.0406ZM34.1346 38.4805L11.3449 42.472L20.6829 32.9782C21.8642 33.604 23.2313 33.7838 24.5342 33.4846C25.8371 33.1854 26.9889 32.4272 27.7788 31.3487C28.5687 30.2702 28.9441 28.9434 28.8362 27.6109C28.7284 26.2784 28.1446 25.0293 27.1915 24.0918C26.2384 23.1544 24.9797 22.5913 23.6456 22.5055C22.3115 22.4198 20.9911 22.8171 19.9259 23.6247C18.8606 24.4324 18.1216 25.5965 17.844 26.9042C17.5664 28.212 17.7688 29.5759 18.4141 30.7467L9.07623 40.2445L12.6898 17.3859L23.5626 13.2068L38.1331 27.54L34.1346 38.4805ZM20.9027 28.0802C20.8988 27.6085 21.0349 27.1461 21.2937 26.7517C21.5526 26.3573 21.9226 26.0485 22.357 25.8643C22.7913 25.6802 23.2705 25.629 23.734 25.7172C24.1974 25.8054 24.6243 26.029 24.9607 26.3599C25.297 26.6907 25.5277 27.1138 25.6236 27.5758C25.7195 28.0377 25.6762 28.5177 25.4993 28.955C25.3223 29.3924 25.0197 29.7674 24.6296 30.0328C24.2395 30.2981 23.7795 30.4418 23.3078 30.4457C22.6751 30.451 22.0664 30.2047 21.6153 29.7611C21.1643 29.3175 20.908 28.7128 20.9027 28.0802ZM39.9597 24.877L26.193 11.3383L30.924 6.52828L44.6908 20.067L39.9597 24.877Z" fill="#2A233E"/>
</svg>
