<svg width="51" height="51" viewBox="0 0 51 51" fill="none" xmlns="http://www.w3.org/2000/svg">
<path d="M30.2169 44.5269C30.2169 44.9486 30.0493 45.3531 29.7511 45.6514C29.4528 45.9496 29.0483 46.1172 28.6266 46.1172L22.2653 46.1172C21.8435 46.1172 21.439 45.9496 21.1408 45.6514C20.8426 45.3531 20.675 44.9486 20.675 44.5269C20.675 44.1051 20.8426 43.7006 21.1408 43.4023C21.439 43.1041 21.8435 42.9365 22.2653 42.9365L28.6266 42.9365C29.0483 42.9365 29.4528 43.1041 29.7511 43.4023C30.0493 43.7006 30.2169 44.1051 30.2169 44.5269ZM25.4459 22.2625C25.9177 22.2625 26.3789 22.1226 26.7712 21.8605C27.1635 21.5983 27.4693 21.2258 27.6498 20.7899C27.8304 20.354 27.8776 19.8744 27.7856 19.4116C27.6935 18.9489 27.4663 18.5238 27.1327 18.1902C26.7991 17.8566 26.3741 17.6294 25.9113 17.5374C25.4486 17.4453 24.969 17.4926 24.5331 17.6731C24.0972 17.8537 23.7246 18.1594 23.4625 18.5517C23.2004 18.944 23.0605 19.4052 23.0605 19.877C23.0605 20.5097 23.3118 21.1164 23.7592 21.5638C24.2065 22.0112 24.8133 22.2625 25.4459 22.2625ZM44.4542 30.9754L41.9971 42.034C41.8806 42.5592 41.6327 43.0462 41.2767 43.4495C40.9208 43.8528 40.4683 44.1593 39.9618 44.3402C39.4552 44.5211 38.911 44.5705 38.38 44.4839C37.8491 44.3974 37.3489 44.1775 36.926 43.845L31.511 39.7559L19.3849 39.7559L13.9659 43.845C13.543 44.1775 13.0427 44.3974 12.5118 44.4839C11.9809 44.5705 11.4367 44.5211 10.9301 44.3402C10.4235 44.1593 9.9711 43.8528 9.61514 43.4495C9.25918 43.0462 9.01133 42.5592 8.89476 42.034L6.43773 30.9754C6.33351 30.5008 6.33878 30.0088 6.45313 29.5365C6.56749 29.0643 6.78792 28.6243 7.09771 28.25L12.7751 21.4395C12.9657 18.9366 13.5403 16.478 14.4787 14.1499C17.0431 7.72106 21.6352 3.68763 23.4978 2.25237C24.0553 1.82037 24.7406 1.58594 25.4459 1.58594C26.1512 1.58594 26.8366 1.82037 27.3941 2.25237C29.2508 3.68763 33.8488 7.72106 36.4131 14.1499C37.3516 16.478 37.9262 18.9366 38.1168 21.4395L43.7942 28.25C44.104 28.6243 44.3244 29.0643 44.4388 29.5365C44.5531 30.0088 44.5584 30.5008 44.4542 30.9754ZM19.7665 36.5753L31.1253 36.5753C35.3238 29.1127 36.109 21.9683 33.4591 15.3287C31.1214 9.46842 26.7361 5.76299 25.4459 4.76904C24.1518 5.76299 19.7665 9.46842 17.4288 15.3287C14.7829 21.9683 15.5681 29.1127 19.7665 36.5753ZM16.7847 37.7382C14.6444 33.8486 13.3457 30.0259 12.8884 26.2701L9.54282 30.2856L11.9998 41.3462L12.0356 41.3204L16.7847 37.7382ZM41.3491 30.2856L38.0034 26.2701C37.5502 30.0179 36.2541 33.8406 34.1151 37.7382L38.8563 41.3164L38.892 41.3423L41.3491 30.2856Z" fill="#2A233E"/>
</svg>
